<svg width="37" height="25" xmlns="http://www.w3.org/2000/svg" xmlns:xlink="http://www.w3.org/1999/xlink"><defs><rect id="b" x="0" y="0" width="37" height="24" rx="3"/><filter x="-1.4%" y="-2.1%" width="102.7%" height="108.3%" filterUnits="objectBoundingBox" id="a"><feOffset dy="1" in="SourceAlpha" result="shadowOffsetOuter1"/><feComposite in="shadowOffsetOuter1" in2="SourceAlpha" operator="out" result="shadowOffsetOuter1"/><feColorMatrix values="0 0 0 0 0 0 0 0 0 0 0 0 0 0 0 0 0 0 0.164472247 0" in="shadowOffsetOuter1"/></filter></defs><g fill="none" fill-rule="evenodd"><use fill="#000" filter="url(#a)" xlink:href="#b"/><rect stroke="#9DA7B3" stroke-width=".5" stroke-linejoin="square" fill="#FFF" x=".25" y=".25" width="36.5" height="23.5" rx="3"/><path d="M12.607 17.373c1.017 0 1.871-.13 2.564-.39v-1.018c-.893.25-1.689.376-2.386.376-1.135 0-2.008-.356-2.621-1.07-.613-.713-.92-1.723-.92-3.031 0-1.272.318-2.273.954-3.005.635-.731 1.503-1.097 2.6-1.097.757 0 1.514.178 2.27.533l.493-.998c-.784-.383-1.7-.574-2.748-.574-.985 0-1.84.21-2.567.629a4.147 4.147 0 0 0-1.668 1.79C8.193 10.295 8 11.197 8 12.227c0 1.645.4 2.914 1.2 3.808.8.893 1.935 1.34 3.407 1.34zm6.83 0c.19 0 .406-.019.646-.058.239-.038.42-.087.543-.147V16.3c-.11.032-.258.063-.444.092-.187.03-.38.045-.581.045-.374 0-.668-.12-.882-.362-.214-.242-.322-.588-.322-1.04v-4.409h2.174v-.881h-2.174V8.008h-.656l-.478 1.6-1.074.471v.547h1.074v4.457c0 1.527.724 2.29 2.174 2.29zm3.82-.136v-4.02c0-.734.216-1.346.647-1.839.43-.492.949-.738 1.555-.738.237 0 .51.034.82.103l.158-1.053a4.44 4.44 0 0 0-.896-.082c-.47 0-.9.132-1.292.396-.392.265-.727.64-1.005 1.128h-.055l-.13-1.387h-.936v7.492h1.135zm5.716 0V6.6h-1.135v10.637h1.135z" fill="#5A6068" fill-rule="nonzero"/></g></svg>