<svg width="24" height="25" xmlns="http://www.w3.org/2000/svg" xmlns:xlink="http://www.w3.org/1999/xlink"><defs><rect id="b" x="0" y="0" width="24" height="24" rx="3"/><filter x="-2.1%" y="-2.1%" width="104.2%" height="108.3%" filterUnits="objectBoundingBox" id="a"><feOffset dy="1" in="SourceAlpha" result="shadowOffsetOuter1"/><feComposite in="shadowOffsetOuter1" in2="SourceAlpha" operator="out" result="shadowOffsetOuter1"/><feColorMatrix values="0 0 0 0 0 0 0 0 0 0 0 0 0 0 0 0 0 0 0.164472247 0" in="shadowOffsetOuter1"/></filter></defs><g fill="none" fill-rule="evenodd"><use fill="#000" filter="url(#a)" xlink:href="#b"/><rect stroke="#9DA7B3" stroke-width=".5" stroke-linejoin="square" fill="#FFF" x=".25" y=".25" width="23.5" height="23.5" rx="3"/><path d="M12.599 17.124c.72 0 1.353-.043 1.9-.13a10.922 10.922 0 0 0 1.614-.382v-4.86h-3.398v1.038h2.235v3.077c-.66.16-1.337.239-2.03.239-1.276 0-2.243-.349-2.902-1.046-.658-.697-.988-1.72-.988-3.07 0-1.285.342-2.29 1.026-3.014.683-.725 1.634-1.087 2.85-1.087.834 0 1.703.191 2.605.574l.451-1.025a7.529 7.529 0 0 0-2.98-.588c-1.053 0-1.971.206-2.755.619a4.23 4.23 0 0 0-1.802 1.79c-.417.782-.625 1.693-.625 2.732 0 1.622.422 2.883 1.265 3.783.843.9 2.02 1.35 3.534 1.35z" fill="#5A6068" fill-rule="nonzero"/></g></svg>