<svg width="24" height="25" xmlns="http://www.w3.org/2000/svg" xmlns:xlink="http://www.w3.org/1999/xlink"><defs><rect id="b" x="0" y="0" width="24" height="24" rx="3"/><filter x="-2.1%" y="-2.1%" width="104.2%" height="108.3%" filterUnits="objectBoundingBox" id="a"><feOffset dy="1" in="SourceAlpha" result="shadowOffsetOuter1"/><feComposite in="shadowOffsetOuter1" in2="SourceAlpha" operator="out" result="shadowOffsetOuter1"/><feColorMatrix values="0 0 0 0 0 0 0 0 0 0 0 0 0 0 0 0 0 0 0.164472247 0" in="shadowOffsetOuter1"/></filter></defs><g fill="none" fill-rule="evenodd"><use fill="#000" filter="url(#a)" xlink:href="#b"/><rect stroke="#9DA7B3" stroke-width=".5" stroke-linejoin="square" fill="#FFF" x=".25" y=".25" width="23.5" height="23.5" rx="3"/><path d="M16.375 19.5h-8.75A.625.625 0 0 1 7 18.875V13.25H5.125a.624.624 0 0 1-.46-1.047l6.872-7.5A.634.634 0 0 1 12 4.5c.17 0 .341.074.459.203l6.877 7.5a.625.625 0 0 1-.46 1.047H17v5.625c0 .345-.28.625-.625.625zM8.25 18.25h7.5v-5.625c0-.346.28-.625.625-.625h1.079l-5.456-5.95L6.545 12h1.08c.345 0 .625.28.625.625v5.625z" fill="#5A6068" fill-rule="nonzero"/></g></svg>