<svg width="44" height="25" xmlns="http://www.w3.org/2000/svg" xmlns:xlink="http://www.w3.org/1999/xlink"><defs><rect id="b" x="0" y="0" width="44" height="24" rx="3"/><filter x="-1.1%" y="-2.1%" width="102.3%" height="108.3%" filterUnits="objectBoundingBox" id="a"><feOffset dy="1" in="SourceAlpha" result="shadowOffsetOuter1"/><feComposite in="shadowOffsetOuter1" in2="SourceAlpha" operator="out" result="shadowOffsetOuter1"/><feColorMatrix values="0 0 0 0 0 0 0 0 0 0 0 0 0 0 0 0 0 0 0.164472247 0" in="shadowOffsetOuter1"/></filter></defs><g fill="none" fill-rule="evenodd"><use fill="#000" filter="url(#a)" xlink:href="#b"/><rect stroke="#9DA7B3" stroke-width=".5" stroke-linejoin="square" fill="#FFF" x=".25" y=".25" width="43.5" height="23.5" rx="3"/><path d="M10.484 17.349c1.094 0 1.96-.246 2.598-.739.638-.492.957-1.178.957-2.057 0-.684-.197-1.24-.591-1.668-.394-.429-1.116-.83-2.164-1.203-.624-.224-1.088-.428-1.39-.612-.304-.185-.52-.388-.647-.609-.128-.22-.191-.504-.191-.85 0-.47.173-.837.52-1.101.346-.265.826-.397 1.442-.397.779 0 1.581.173 2.406.52l.362-1.012c-.834-.364-1.748-.547-2.741-.547-.953 0-1.718.228-2.297.684-.579.456-.868 1.068-.868 1.839 0 .733.2 1.328.598 1.784.399.456 1.063.85 1.993 1.182.665.237 1.16.45 1.487.636.325.187.558.391.697.612.139.221.208.505.208.851 0 .524-.196.933-.588 1.227-.392.294-.975.441-1.75.441a7.05 7.05 0 0 1-1.435-.15c-.483-.1-.93-.237-1.34-.41v1.12c.638.306 1.55.459 2.734.459zm6.563-.137v-3.917c0-.975.181-1.677.543-2.106.363-.428.938-.642 1.726-.642.593 0 1.028.15 1.306.451.278.3.417.757.417 1.367v4.847h1.135v-4.888c0-.948-.23-1.64-.687-2.074-.458-.436-1.145-.653-2.061-.653a3.1 3.1 0 0 0-1.412.31c-.412.208-.73.492-.953.852h-.069c.037-.255.055-.577.055-.964v-3.22h-1.135v10.637h1.135zm8.032-8.764c.182 0 .34-.062.472-.188.132-.125.198-.315.198-.57 0-.256-.066-.445-.198-.568a.669.669 0 0 0-.472-.184c-.191 0-.35.06-.478.18-.128.121-.192.312-.192.571 0 .256.064.446.192.571a.655.655 0 0 0 .478.188zm.56 8.764V9.72h-1.134v7.492h1.135zm3.877 0v-6.61h1.907V9.72h-1.907v-.486c0-.629.102-1.085.307-1.37.205-.285.522-.427.95-.427.31 0 .684.07 1.122.211l.293-.909c-.533-.16-.998-.239-1.394-.239-1.609 0-2.413.92-2.413 2.762v.417l-1.34.41v.513h1.34v6.61h1.135zm5.53.137c.191 0 .407-.02.646-.058.24-.04.42-.088.543-.147v-.869c-.109.032-.257.063-.444.093s-.38.044-.581.044c-.374 0-.668-.12-.882-.362-.214-.242-.321-.588-.321-1.04v-4.408h2.174V9.72h-2.174V7.983h-.656l-.479 1.6-1.073.472v.547h1.073v4.457c0 1.526.725 2.29 2.174 2.29z" fill="#5A6068" fill-rule="nonzero"/></g></svg>