<svg width="24" height="25" xmlns="http://www.w3.org/2000/svg" xmlns:xlink="http://www.w3.org/1999/xlink"><defs><rect id="b" x="0" y="0" width="24" height="24" rx="3"/><filter x="-2.1%" y="-2.1%" width="104.2%" height="108.3%" filterUnits="objectBoundingBox" id="a"><feOffset dy="1" in="SourceAlpha" result="shadowOffsetOuter1"/><feComposite in="shadowOffsetOuter1" in2="SourceAlpha" operator="out" result="shadowOffsetOuter1"/><feColorMatrix values="0 0 0 0 0 0 0 0 0 0 0 0 0 0 0 0 0 0 0.164472247 0" in="shadowOffsetOuter1"/></filter></defs><g fill="none" fill-rule="evenodd"><use fill="#000" filter="url(#a)" xlink:href="#b"/><rect stroke="#9DA7B3" stroke-width=".5" stroke-linejoin="square" fill="#FFF" x=".25" y=".25" width="23.5" height="23.5" rx="3"/><path d="M16.2 13.4h-1.4v-2.8h1.4a2.8 2.8 0 1 0-2.8-2.8v1.4h-2.8V7.8a2.8 2.8 0 1 0-2.8 2.8h1.4v2.8H7.8a2.8 2.8 0 1 0 2.8 2.8v-1.4h2.8v1.4a2.8 2.8 0 1 0 2.8-2.8zm0-7a1.4 1.4 0 0 1 0 2.8h-1.4V7.8a1.4 1.4 0 0 1 1.4-1.4zM6.4 7.8a1.4 1.4 0 0 1 2.8 0v1.4H7.8a1.4 1.4 0 0 1-1.4-1.4zm1.4 9.8a1.4 1.4 0 0 1 0-2.8h1.4v1.4a1.4 1.4 0 0 1-1.4 1.4zm2.8-4.2v-2.8h2.8v2.8h-2.8zm5.6 4.2a1.4 1.4 0 0 1-1.4-1.4v-1.4h1.4a1.4 1.4 0 0 1 0 2.8z" fill="#5A6068" fill-rule="nonzero"/></g></svg>